<?xml version="1.0" encoding="UTF-8"?>
<svg xmlns="http://www.w3.org/2000/svg" viewBox="-50 -40 1021.6 209.6">
  <title>Mauricio Zaffari horizontal lockup — light</title>
  <desc>Mark left, outlined MAURICIO ZAFFARI wordmark right. Mark rendered in Ink #141210 with Accent #B03A1A rule; wordmark in Ink. Clearspace 50px sides, 40px top/bottom.</desc>
  <g transform="scale(0.4)">
    <path fill="#141210" d="M0 0H280v76L116 180h164v76H0v-76l164-104H0z"/>
    <rect x="0" y="288" width="280" height="36" fill="#B03A1A"/>
  </g>
  <g id="wordmark">
    <path d="M 31.359375 0 L 17.59375 -44.796875 L 17.28125 -44.796875 C 17.332031 -43.734375 17.410156 -42.132812 17.515625 -40 C 17.628906 -37.863281 17.738281 -35.582031 17.84375 -33.15625 C 17.945312 -30.726562 18 -28.53125 18 -26.5625 L 18 0 L 7.203125 0 L 7.203125 -57.125 L 23.6875 -57.125 L 37.203125 -13.4375 L 37.4375 -13.4375 L 51.765625 -57.125 L 68.234375 -57.125 L 68.234375 0 L 56.953125 0 L 56.953125 -27.046875 C 56.953125 -28.859375 56.992188 -30.9375 57.078125 -33.28125 C 57.160156 -35.625 57.238281 -37.847656 57.3125 -39.953125 C 57.394531 -42.066406 57.460938 -43.65625 57.515625 -44.71875 L 57.203125 -44.71875 L 42.484375 0 Z M 31.359375 0 " transform="translate(160.00 93.36)" fill="#141210" fill-rule="evenodd"/>
    <path d="M 42.15625 0 L 37.765625 -13.4375 L 17.59375 -13.4375 L 13.203125 0 L 0 0 L 20.078125 -57.359375 L 35.125 -57.359375 L 55.359375 0 Z M 30.953125 -36.078125 C 30.742188 -36.878906 30.410156 -38.078125 29.953125 -39.671875 C 29.503906 -41.273438 29.066406 -42.914062 28.640625 -44.59375 C 28.210938 -46.28125 27.863281 -47.65625 27.59375 -48.71875 C 27.382812 -47.488281 27.078125 -46.085938 26.671875 -44.515625 C 26.273438 -42.941406 25.890625 -41.394531 25.515625 -39.875 C 25.140625 -38.351562 24.820312 -37.085938 24.5625 -36.078125 L 20.484375 -23.6875 L 34.953125 -23.6875 Z M 30.953125 -36.078125 " transform="translate(235.00 93.36)" fill="#141210" fill-rule="evenodd"/>
    <path d="M 53.6875 -20.15625 C 53.6875 -16.207031 52.816406 -12.644531 51.078125 -9.46875 C 49.347656 -6.300781 46.734375 -3.796875 43.234375 -1.953125 C 39.742188 -0.117188 35.332031 0.796875 30 0.796875 C 22.425781 0.796875 16.664062 -1.132812 12.71875 -5 C 8.769531 -8.863281 6.796875 -13.96875 6.796875 -20.3125 L 6.796875 -57.125 L 18.875 -57.125 L 18.875 -22.15625 C 18.875 -17.46875 19.832031 -14.160156 21.75 -12.234375 C 23.675781 -10.316406 26.53125 -9.359375 30.3125 -9.359375 C 34.257812 -9.359375 37.125 -10.394531 38.90625 -12.46875 C 40.695312 -14.550781 41.59375 -17.804688 41.59375 -22.234375 L 41.59375 -57.125 L 53.6875 -57.125 Z M 53.6875 -20.15625 " transform="translate(290.00 93.36)" fill="#141210" fill-rule="evenodd"/>
    <path d="M 24.3125 -57.125 C 39.195312 -57.125 46.640625 -51.578125 46.640625 -40.484375 C 46.640625 -36.585938 45.648438 -33.410156 43.671875 -30.953125 C 41.703125 -28.503906 39.25 -26.585938 36.3125 -25.203125 L 52.5625 0 L 38.5625 0 L 25.84375 -21.921875 L 19.046875 -21.921875 L 19.046875 0 L 6.796875 0 L 6.796875 -57.125 Z M 24.078125 -47.59375 L 19.046875 -47.59375 L 19.046875 -31.359375 L 24.078125 -31.359375 C 27.328125 -31.359375 29.832031 -32.023438 31.59375 -33.359375 C 33.351562 -34.691406 34.234375 -36.878906 34.234375 -39.921875 C 34.234375 -42.484375 33.421875 -44.398438 31.796875 -45.671875 C 30.171875 -46.953125 27.597656 -47.59375 24.078125 -47.59375 Z M 24.078125 -47.59375 " transform="translate(350.00 93.36)" fill="#141210" fill-rule="evenodd"/>
    <path d="M 28.5625 0 L 2.5625 0 L 2.5625 -6.875 L 9.515625 -10.078125 L 9.515625 -47.046875 L 2.5625 -50.234375 L 2.5625 -57.125 L 28.5625 -57.125 L 28.5625 -50.234375 L 21.59375 -47.046875 L 21.59375 -10.078125 L 28.5625 -6.875 Z M 28.5625 0 " transform="translate(402.00 93.36)" fill="#141210" fill-rule="evenodd"/>
    <path d="M 31.84375 -47.765625 C 27.25 -47.765625 23.632812 -46.039062 21 -42.59375 C 18.363281 -39.15625 17.046875 -34.425781 17.046875 -28.40625 C 17.046875 -22.375 18.3125 -17.691406 20.84375 -14.359375 C 23.375 -11.023438 27.195312 -9.359375 32.3125 -9.359375 C 34.820312 -9.359375 37.238281 -9.648438 39.5625 -10.234375 C 41.882812 -10.828125 44.21875 -11.578125 46.5625 -12.484375 L 46.5625 -2.078125 C 42.03125 -0.160156 36.828125 0.796875 30.953125 0.796875 C 24.878906 0.796875 19.878906 -0.414062 15.953125 -2.84375 C 12.035156 -5.269531 9.128906 -8.679688 7.234375 -13.078125 C 5.347656 -17.484375 4.40625 -22.617188 4.40625 -28.484375 C 4.40625 -34.242188 5.46875 -39.335938 7.59375 -43.765625 C 9.726562 -48.191406 12.847656 -51.65625 16.953125 -54.15625 C 21.066406 -56.664062 26.082031 -57.921875 32 -57.921875 C 34.820312 -57.921875 37.6875 -57.613281 40.59375 -57 C 43.5 -56.382812 46.257812 -55.4375 48.875 -54.15625 L 44.875 -44.40625 C 42.957031 -45.3125 40.914062 -46.097656 38.75 -46.765625 C 36.59375 -47.429688 34.289062 -47.765625 31.84375 -47.765625 Z M 31.84375 -47.765625 " transform="translate(433.00 93.36)" fill="#141210" fill-rule="evenodd"/>
    <path d="M 28.5625 0 L 2.5625 0 L 2.5625 -6.875 L 9.515625 -10.078125 L 9.515625 -47.046875 L 2.5625 -50.234375 L 2.5625 -57.125 L 28.5625 -57.125 L 28.5625 -50.234375 L 21.59375 -47.046875 L 21.59375 -10.078125 L 28.5625 -6.875 Z M 28.5625 0 " transform="translate(484.00 93.36)" fill="#141210" fill-rule="evenodd"/>
    <path d="M 58.796875 -28.640625 C 58.796875 -22.722656 57.820312 -17.5625 55.875 -13.15625 C 53.925781 -8.757812 50.953125 -5.332031 46.953125 -2.875 C 42.953125 -0.425781 37.832031 0.796875 31.59375 0.796875 C 25.40625 0.796875 20.296875 -0.425781 16.265625 -2.875 C 12.242188 -5.332031 9.257812 -8.773438 7.3125 -13.203125 C 5.375 -17.628906 4.40625 -22.800781 4.40625 -28.71875 C 4.40625 -34.582031 5.375 -39.710938 7.3125 -44.109375 C 9.257812 -48.515625 12.242188 -51.929688 16.265625 -54.359375 C 20.296875 -56.785156 25.4375 -58 31.6875 -58 C 37.863281 -58 42.96875 -56.785156 47 -54.359375 C 51.03125 -51.929688 54.003906 -48.515625 55.921875 -44.109375 C 57.835938 -39.710938 58.796875 -34.554688 58.796875 -28.640625 Z M 17.28125 -28.640625 C 17.28125 -22.671875 18.410156 -17.988281 20.671875 -14.59375 C 22.941406 -11.207031 26.582031 -9.515625 31.59375 -9.515625 C 36.71875 -9.515625 40.382812 -11.207031 42.59375 -14.59375 C 44.8125 -17.988281 45.921875 -22.671875 45.921875 -28.640625 C 45.921875 -34.609375 44.8125 -39.300781 42.59375 -42.71875 C 40.382812 -46.132812 36.75 -47.84375 31.6875 -47.84375 C 26.613281 -47.84375 22.941406 -46.132812 20.671875 -42.71875 C 18.410156 -39.300781 17.28125 -34.609375 17.28125 -28.640625 Z M 17.28125 -28.640625 " transform="translate(515.00 93.36)" fill="#141210" fill-rule="evenodd"/>
    <path d="M 44.40625 0 L 1.921875 0 L 1.921875 -7.84375 L 29.28125 -47.125 L 2.640625 -47.125 L 2.640625 -57.125 L 43.6875 -57.125 L 43.6875 -49.28125 L 16.3125 -10 L 44.40625 -10 Z M 44.40625 0 " transform="translate(599.00 93.36)" fill="#141210" fill-rule="evenodd"/>
    <path d="M 42.15625 0 L 37.765625 -13.4375 L 17.59375 -13.4375 L 13.203125 0 L 0 0 L 20.078125 -57.359375 L 35.125 -57.359375 L 55.359375 0 Z M 30.953125 -36.078125 C 30.742188 -36.878906 30.410156 -38.078125 29.953125 -39.671875 C 29.503906 -41.273438 29.066406 -42.914062 28.640625 -44.59375 C 28.210938 -46.28125 27.863281 -47.65625 27.59375 -48.71875 C 27.382812 -47.488281 27.078125 -46.085938 26.671875 -44.515625 C 26.273438 -42.941406 25.890625 -41.394531 25.515625 -39.875 C 25.140625 -38.351562 24.820312 -37.085938 24.5625 -36.078125 L 20.484375 -23.6875 L 34.953125 -23.6875 Z M 30.953125 -36.078125 " transform="translate(645.00 93.36)" fill="#141210" fill-rule="evenodd"/>
    <path d="M 19.125 0 L 7.203125 0 L 7.203125 -57.125 L 39.921875 -57.125 L 39.921875 -47.203125 L 19.125 -47.203125 L 19.125 -32.484375 L 38.484375 -32.484375 L 38.484375 -22.5625 L 19.125 -22.5625 Z M 19.125 0 " transform="translate(700.00 93.36)" fill="#141210" fill-rule="evenodd"/>
    <path d="M 19.125 0 L 7.203125 0 L 7.203125 -57.125 L 39.921875 -57.125 L 39.921875 -47.203125 L 19.125 -47.203125 L 19.125 -32.484375 L 38.484375 -32.484375 L 38.484375 -22.5625 L 19.125 -22.5625 Z M 19.125 0 " transform="translate(744.00 93.36)" fill="#141210" fill-rule="evenodd"/>
    <path d="M 42.15625 0 L 37.765625 -13.4375 L 17.59375 -13.4375 L 13.203125 0 L 0 0 L 20.078125 -57.359375 L 35.125 -57.359375 L 55.359375 0 Z M 30.953125 -36.078125 C 30.742188 -36.878906 30.410156 -38.078125 29.953125 -39.671875 C 29.503906 -41.273438 29.066406 -42.914062 28.640625 -44.59375 C 28.210938 -46.28125 27.863281 -47.65625 27.59375 -48.71875 C 27.382812 -47.488281 27.078125 -46.085938 26.671875 -44.515625 C 26.273438 -42.941406 25.890625 -41.394531 25.515625 -39.875 C 25.140625 -38.351562 24.820312 -37.085938 24.5625 -36.078125 L 20.484375 -23.6875 L 34.953125 -23.6875 Z M 30.953125 -36.078125 " transform="translate(786.00 93.36)" fill="#141210" fill-rule="evenodd"/>
    <path d="M 24.3125 -57.125 C 39.195312 -57.125 46.640625 -51.578125 46.640625 -40.484375 C 46.640625 -36.585938 45.648438 -33.410156 43.671875 -30.953125 C 41.703125 -28.503906 39.25 -26.585938 36.3125 -25.203125 L 52.5625 0 L 38.5625 0 L 25.84375 -21.921875 L 19.046875 -21.921875 L 19.046875 0 L 6.796875 0 L 6.796875 -57.125 Z M 24.078125 -47.59375 L 19.046875 -47.59375 L 19.046875 -31.359375 L 24.078125 -31.359375 C 27.328125 -31.359375 29.832031 -32.023438 31.59375 -33.359375 C 33.351562 -34.691406 34.234375 -36.878906 34.234375 -39.921875 C 34.234375 -42.484375 33.421875 -44.398438 31.796875 -45.671875 C 30.171875 -46.953125 27.597656 -47.59375 24.078125 -47.59375 Z M 24.078125 -47.59375 " transform="translate(841.00 93.36)" fill="#141210" fill-rule="evenodd"/>
    <path d="M 28.5625 0 L 2.5625 0 L 2.5625 -6.875 L 9.515625 -10.078125 L 9.515625 -47.046875 L 2.5625 -50.234375 L 2.5625 -57.125 L 28.5625 -57.125 L 28.5625 -50.234375 L 21.59375 -47.046875 L 21.59375 -10.078125 L 28.5625 -6.875 Z M 28.5625 0 " transform="translate(893.00 93.36)" fill="#141210" fill-rule="evenodd"/>
  </g>
</svg>
